<?xml version="1.0" encoding="UTF-8"?>
<svg version="1.1" xmlns="http://www.w3.org/2000/svg" width="67" height="71">
<path d="M0 0 C0.97066406 -0.00257812 1.94132812 -0.00515625 2.94140625 -0.0078125 C5.4375 0.125 5.4375 0.125 7.4375 1.125 C5.38486842 8.23026316 5.38486842 8.23026316 2.4375 10.125 C1.4475 10.08375 0.4575 10.0425 -0.5625 10 C-3.63547983 9.78892484 -3.63547983 9.78892484 -5.375 11.9375 C-6.54419603 15.0758683 -6.870321 17.50768891 -7.13671875 20.82421875 C-7.21881592 21.81639404 -7.30091309 22.80856934 -7.38549805 23.83081055 C-7.44390869 24.58789307 -7.50231934 25.34497559 -7.5625 26.125 C-6.51384766 26.07375977 -5.46519531 26.02251953 -4.38476562 25.96972656 C-0.4643064 25.78394166 3.45688412 25.62684059 7.37890625 25.47802734 C9.07064123 25.40990595 10.76208912 25.33418668 12.453125 25.25048828 C14.89545825 25.13096372 17.33754729 25.03953873 19.78125 24.953125 C20.52741577 24.91060608 21.27358154 24.86808716 22.0423584 24.82427979 C27.64316233 24.66622163 31.75312845 26.03395558 36.4375 29.125 C41.64592334 34.47048711 42.69127826 39.27582841 42.6328125 46.61328125 C42.6299826 47.31647995 42.62715271 48.01967865 42.62423706 48.7441864 C42.61310151 50.97546892 42.58800997 53.20634017 42.5625 55.4375 C42.5524616 56.95637438 42.54333726 58.4752551 42.53515625 59.99414062 C42.51318413 63.70455921 42.47870047 67.41473942 42.4375 71.125 C39.4675 71.125 36.4975 71.125 33.4375 71.125 C33.407771 69.93741089 33.407771 69.93741089 33.37744141 68.72583008 C33.2820284 65.1293924 33.17241409 61.53352249 33.0625 57.9375 C33.0315625 56.69162109 33.000625 55.44574219 32.96875 54.16210938 C32.91074219 52.3590332 32.91074219 52.3590332 32.8515625 50.51953125 C32.8201416 49.41456299 32.7887207 48.30959473 32.75634766 47.17114258 C32.34032257 43.19660583 31.49279626 40.25846635 28.75 37.3125 C25.46005279 35.62306765 23.08919302 35.74061126 19.4375 36.125 C15.61501032 37.8238843 13.93442885 39.25649524 12.4375 43.125 C12.07144287 46.22161681 12.07144287 46.22161681 12.0234375 49.640625 C11.98476563 50.89101563 11.94609375 52.14140625 11.90625 53.4296875 C11.85984375 55.38261719 11.85984375 55.38261719 11.8125 57.375 C11.77382813 58.69242188 11.73515625 60.00984375 11.6953125 61.3671875 C11.60103818 64.61965161 11.5154325 67.87210996 11.4375 71.125 C8.4675 71.125 5.4975 71.125 2.4375 71.125 C2.4375 59.245 2.4375 47.365 2.4375 35.125 C-0.8625 35.125 -4.1625 35.125 -7.5625 35.125 C-7.5625 47.005 -7.5625 58.885 -7.5625 71.125 C-10.5325 71.125 -13.5025 71.125 -16.5625 71.125 C-16.5625 59.245 -16.5625 47.365 -16.5625 35.125 C-19.2025 35.125 -21.8425 35.125 -24.5625 35.125 C-24.5625 32.155 -24.5625 29.185 -24.5625 26.125 C-21.9225 26.125 -19.2825 26.125 -16.5625 26.125 C-16.59730469 25.18398438 -16.63210937 24.24296875 -16.66796875 23.2734375 C-16.69503906 22.02820313 -16.72210937 20.78296875 -16.75 19.5 C-16.78480469 18.27023438 -16.81960937 17.04046875 -16.85546875 15.7734375 C-16.33356035 9.27393817 -13.38155473 5.34167289 -8.5625 1.125 C-5.46186477 0.09145492 -3.24805932 -0.00864996 0 0 Z " fill="#FB923C" transform="translate(24.5625,-0.125)"/>
</svg>
